<svg xmlns="http://www.w3.org/2000/svg" width="400" height="400" viewBox="0 0 400 400">
  <rect width="400" height="400" fill="#1e1e1e"/>
  <rect x="20" y="20" width="360" height="360" rx="8" fill="#252526" stroke="#3c3c3c" stroke-width="1"/>
  <!-- Browser window -->
  <rect x="80" y="90" width="240" height="160" rx="8" fill="none" stroke="#4ec9b0" stroke-width="2"/>
  <line x1="80" y1="118" x2="320" y2="118" stroke="#3c3c3c" stroke-width="1"/>
  <circle cx="100" cy="104" r="4" fill="#f44747"/>
  <circle cx="116" cy="104" r="4" fill="#e0af68"/>
  <circle cx="132" cy="104" r="4" fill="#4ec9b0"/>
  <!-- Code lines inside browser -->
  <rect x="100" y="132" width="80" height="6" rx="3" fill="#c586c0" opacity="0.6"/>
  <rect x="100" y="148" width="140" height="6" rx="3" fill="#9cdcfe" opacity="0.4"/>
  <rect x="100" y="164" width="100" height="6" rx="3" fill="#ce9178" opacity="0.5"/>
  <rect x="100" y="180" width="120" height="6" rx="3" fill="#4ec9b0" opacity="0.4"/>
  <rect x="100" y="196" width="60" height="6" rx="3" fill="#c586c0" opacity="0.6"/>
  <rect x="100" y="212" width="160" height="6" rx="3" fill="#9cdcfe" opacity="0.3"/>
  <text x="200" y="300" text-anchor="middle" font-family="monospace" font-size="20" font-weight="bold" fill="#4ec9b0">Web Apps</text>
  <text x="200" y="326" text-anchor="middle" font-family="monospace" font-size="14" fill="#6a9955">// modern stack</text>
</svg>
